<svg width="690" height="400" xmlns="http://www.w3.org/2000/svg" xmlns:xlink="http://www.w3.org/1999/xlink" version="1.1" baseProfile="full" viewBox="0 0 690 400">
<rect width="690" height="400" x="0" y="0" id="0" fill="var(--active-bg)"></rect>
<polyline points="482 117.4 482 107.1 474.7 107.1" fill="none" stroke="#D81B60" stroke-width="2"></polyline>
<polyline points="422.5 340 432.2 357.4 473.7 357.4" fill="none" stroke="#8E24AA" stroke-width="2"></polyline>
<polyline points="277.3 345 273.4 363.1 273.4 363.1" fill="none" stroke="#3949AB" stroke-width="2"></polyline>
<polyline points="210.9 287.3 203.8 298.2 203.8 298.2" fill="none" stroke="#1E88E5" stroke-width="2"></polyline>
<polyline points="189.6 238.2 189.6 269.5 216.2 269.5" fill="none" stroke="#039BE5" stroke-width="2"></polyline>
<polyline points="185.2 193 165.2 254.1 163.6 254.1" fill="none" stroke="#00ACC1" stroke-width="2"></polyline>
<polyline points="190.3 159.2 178.1 238.7 178.1 238.7" fill="none" stroke="#00897B" stroke-width="2"></polyline>
<polyline points="197.2 138.8 182.2 223.3 182.2 223.3" fill="none" stroke="#43A047" stroke-width="2"></polyline>
<polyline points="204.5 123.4 200.1 207.9 200.1 207.9" fill="none" stroke="#7CB342" stroke-width="2"></polyline>
<polyline points="211.7 111.6 245.7 192.5 245.7 192.5" fill="none" stroke="#C0CA33" stroke-width="2"></polyline>
<polyline points="217.9 102.8 244.1 177.1 244.1 177.1" fill="none" stroke="#FDD835" stroke-width="2"></polyline>
<polyline points="222.8 96.7 310.4 161.7 310.4 161.7" fill="none" stroke="#FFB300" stroke-width="2"></polyline>
<polyline points="227.7 91.2 291 146.3 291 146.3" fill="none" stroke="#FB8C00" stroke-width="2"></polyline>
<polyline points="232.6 86.1 187.2 130.9 179.6 130.9" fill="none" stroke="#F4511E" stroke-width="2"></polyline>
<polyline points="237.4 81.6 282 115.5 282 115.5" fill="none" stroke="#6D4C41" stroke-width="2"></polyline>
<polyline points="241.4 78 220.6 100.1 220.6 100.1" fill="none" stroke="#757575" stroke-width="2"></polyline>
<polyline points="244.8 75.2 232.3 84.7 220.7 84.7" fill="none" stroke="#546E7A" stroke-width="2"></polyline>
<polyline points="248.2 72.6 236.1 69.3 151.2 69.3" fill="none" stroke="#b71c1c" stroke-width="2"></polyline>
<polyline points="251.5 70.2 239.8 53.9 194.7 53.9" fill="none" stroke="#880E4F" stroke-width="2"></polyline>
<polyline points="296.8 47.4 290.8 28.3 157.2 28.3" fill="none" stroke="grey" stroke-width="2"></polyline>
<path d="M345 41.0031A1 1 0 0 1 346.0063 40.0032A160 160 0 0 1 486.9541 273.8176A1 1 0 0 1 485.6 274.2405L381.2453 219.1385A1 1 0 0 1 380.8168 217.8089A40 40 0 0 0 345.9756 160.0119A1 1 0 0 1 345 159.0122Z" fill="#D81B60" stroke="#000" stroke-linejoin="round"></path>
<path d="M485.6 274.2405A1 1 0 0 1 486.0144 275.5973A160 160 0 0 1 334.3269 359.6436A1 1 0 0 1 333.3963 358.5729L342.0087 240.8785A1 1 0 0 1 343.0546 239.9527A40 40 0 0 0 379.9057 219.5344A1 1 0 0 1 381.2453 219.1385Z" fill="#8E24AA" stroke="#000" stroke-linejoin="round"></path>
<path d="M333.3963 358.5729A1 1 0 0 1 332.3197 359.4967A160 160 0 0 1 230.8161 312.0805A1 1 0 0 1 230.8338 310.662L315.5691 228.5276A1 1 0 0 1 316.9659 228.5323A40 40 0 0 0 341.1086 239.8103A1 1 0 0 1 342.0087 240.8785Z" fill="#3949AB" stroke="#000" stroke-linejoin="round"></path>
<path d="M230.8338 310.662A1 1 0 0 1 229.4154 310.6354A160 160 0 0 1 197.0203 260.844A1 1 0 0 1 197.5707 259.5365L306.9942 215.3479A1 1 0 0 1 308.2865 215.8782A40 40 0 0 0 315.6079 227.1312A1 1 0 0 1 315.5691 228.5276Z" fill="#1E88E5" stroke="#000" stroke-linejoin="round"></path>
<path d="M197.5707 259.5365A1 1 0 0 1 196.2666 258.9779A160 160 0 0 1 185.868 216.6432A1 1 0 0 1 186.7648 215.5439L304.2085 204.0071A1 1 0 0 1 305.2988 204.8803A40 40 0 0 0 307.5558 214.0689A1 1 0 0 1 306.9942 215.3479Z" fill="#039BE5" stroke="#000" stroke-linejoin="round"></path>
<path d="M186.7648 215.5439A1 1 0 0 1 185.6712 214.6402A160 160 0 0 1 187.561 171.4878A1 1 0 0 1 188.7293 170.6831L304.715 192.4424A1 1 0 0 1 305.5177 193.5856A40 40 0 0 0 305.1081 202.9384A1 1 0 0 1 304.2085 204.0071Z" fill="#00ACC1" stroke="#000" stroke-linejoin="round"></path>
<path d="M188.7293 170.6831A1 1 0 0 1 187.9321 169.5097A160 160 0 0 1 193.3244 149.0637A1 1 0 0 1 194.5967 148.4361L306.2275 186.7073A1 1 0 0 1 306.8568 187.9544A40 40 0 0 0 305.8774 191.6678A1 1 0 0 1 304.715 192.4424Z" fill="#00897B" stroke="#000" stroke-linejoin="round"></path>
<path d="M194.5967 148.4361A1 1 0 0 1 193.9771 147.1599A160 160 0 0 1 200.7925 130.6877A1 1 0 0 1 202.1326 130.2224L308.1702 182.012A1 1 0 0 1 308.6403 183.3274A40 40 0 0 0 307.4896 186.1087A1 1 0 0 1 306.2275 186.7073Z" fill="#43A047" stroke="#000" stroke-linejoin="round"></path>
<path d="M202.1326 130.2224A1 1 0 0 1 201.6757 128.8793A160 160 0 0 1 207.6097 118.0006A1 1 0 0 1 208.9863 117.6576L309.937 178.773A1 1 0 0 1 310.287 180.1253A40 40 0 0 0 309.4967 181.5741A1 1 0 0 1 308.1702 182.012Z" fill="#7CB342" stroke="#000" stroke-linejoin="round"></path>
<path d="M208.9863 117.6576A1 1 0 0 1 208.652 116.2789A160 160 0 0 1 214.8335 106.9588A1 1 0 0 1 216.2336 106.7304L311.8053 175.956A1 1 0 0 1 312.0426 177.3326A40 40 0 0 0 311.2975 178.4561A1 1 0 0 1 309.937 178.773Z" fill="#C0CA33" stroke="#000" stroke-linejoin="round"></path>
<path d="M216.2336 106.7304A1 1 0 0 1 216.0141 105.3288A160 160 0 0 1 219.8091 100.3645A1 1 0 0 1 221.2191 100.2087L313.0905 174.2748A1 1 0 0 1 313.2565 175.6618A40 40 0 0 0 313.1872 175.7523A1 1 0 0 1 311.8053 175.956Z" fill="#FDD835" stroke="#000" stroke-linejoin="round"></path>
<path d="M221.2191 100.2087A1 1 0 0 1 221.0722 98.7977A160 160 0 0 1 224.5198 94.717A1 1 0 0 1 225.9355 94.6261L314.3496 172.8739A0.9409 0.9409 0 0 1 313.1355 174.311Z" fill="#FFB300" stroke="#000" stroke-linejoin="round"></path>
<path d="M225.9355 94.6261A1 1 0 0 1 225.8536 93.2098A160 160 0 0 1 229.4851 89.2918A1 1 0 0 1 230.9035 89.2662L315.6285 171.4941A0.9409 0.9409 0 0 1 314.3496 172.8739Z" fill="#FB8C00" stroke="#000" stroke-linejoin="round"></path>
<path d="M230.9035 89.2662A1 1 0 0 1 230.8867 87.8476A160 160 0 0 1 234.4028 84.3788A1 1 0 0 1 235.821 84.4148L316.9297 170.2827A0.8882 0.8882 0 0 1 315.6654 171.53Z" fill="#F4511E" stroke="#000" stroke-linejoin="round"></path>
<path d="M235.821 84.4148A1 1 0 0 1 235.8659 82.9968A160 160 0 0 1 239 80.1501A1 1 0 0 1 240.4157 80.2414L318.1703 169.2775A0.7963 0.7963 0 0 1 316.9916 170.3481Z" fill="#6D4C41" stroke="#000" stroke-linejoin="round"></path>
<path d="M240.4157 80.2414A1 1 0 0 1 240.5159 78.8263A160 160 0 0 1 242.3609 77.2596A1 1 0 0 1 243.7735 77.39L319.1785 168.7238A0.5619 0.5619 0 0 1 318.3219 169.4512Z" fill="#757575" stroke="#000" stroke-linejoin="round"></path>
<path d="M243.7735 77.39A1 1 0 0 1 243.9129 75.9783A160 160 0 0 1 245.7216 74.5257A1 1 0 0 1 247.1302 74.6944L320.0425 168.0462A0.549 0.549 0 0 1 319.1866 168.7337Z" fill="#546E7A" stroke="#000" stroke-linejoin="round"></path>
<path d="M247.1302 74.6944A1 1 0 0 1 247.3077 73.2869A160 160 0 0 1 249.0744 71.9442A1 1 0 0 1 250.478 72.1501L320.9039 167.4077A0.536 0.536 0 0 1 320.0504 168.0563Z" fill="#b71c1c" stroke="#000" stroke-linejoin="round"></path>
<path d="M250.478 72.1501A1 1 0 0 1 250.6927 70.7478A160 160 0 0 1 252.33 69.5689A1 1 0 0 1 253.728 69.8101L321.747 166.8321A0.5102 0.5102 0 0 1 320.919 167.4282Z" fill="#880E4F" stroke="#000" stroke-linejoin="round"></path>
<path d="M253.728 69.8101A1 1 0 0 1 253.9779 68.4136A160 160 0 0 1 343.9937 40.0032A1 1 0 0 1 345 41.0031L345 159.0122A1 1 0 0 1 344.0244 160.0119A40 40 0 0 0 322.8437 166.6969A1 1 0 0 1 321.471 166.4383Z" fill="grey" stroke="#000" stroke-linejoin="round"></path>
<text dominant-baseline="central" text-anchor="end" style="font-size:14px;font-family:sans-serif;" xml:space="preserve" transform="translate(621 107.0714)" fill="var(--tooltip-grey)">Amazon.com (32.66%)</text>
<text dominant-baseline="central" text-anchor="end" style="font-size:14px;font-family:sans-serif;" xml:space="preserve" transform="translate(621 357.4471)" fill="var(--tooltip-grey)">Google Cloud (18.39%)</text>
<text dominant-baseline="central" text-anchor="start" style="font-size:14px;font-family:sans-serif;" xml:space="preserve" transform="translate(69 363.0835)" fill="var(--tooltip-grey)">DataWeb Global Group (11.56%)</text>
<text dominant-baseline="central" text-anchor="start" style="font-size:14px;font-family:sans-serif;" xml:space="preserve" transform="translate(69 298.1633)" fill="var(--tooltip-grey)">DigitalOcean (6.13%)</text>
<text dominant-baseline="central" text-anchor="start" style="font-size:14px;font-family:sans-serif;" xml:space="preserve" transform="translate(69 269.5244)" fill="var(--tooltip-grey)">Hetzner Online (4.54%)</text>
<text dominant-baseline="central" text-anchor="start" style="font-size:14px;font-family:sans-serif;" xml:space="preserve" transform="translate(69 254.1245)" fill="var(--tooltip-grey)">Alibaba (4.5%)</text>
<text dominant-baseline="central" text-anchor="start" style="font-size:14px;font-family:sans-serif;" xml:space="preserve" transform="translate(69 238.7245)" fill="var(--tooltip-grey)">Lunanode (2.3%)</text>
<text dominant-baseline="central" text-anchor="start" style="font-size:14px;font-family:sans-serif;" xml:space="preserve" transform="translate(69 223.3246)" fill="var(--tooltip-grey)">OVH SAS (1.97%)</text>
<text dominant-baseline="central" text-anchor="start" style="font-size:14px;font-family:sans-serif;" xml:space="preserve" transform="translate(69 207.9247)" fill="var(--tooltip-grey)">BlueVPS OU (1.43%)</text>
<text dominant-baseline="central" text-anchor="start" style="font-size:14px;font-family:sans-serif;" xml:space="preserve" transform="translate(69 192.5247)" fill="var(--tooltip-grey)">UAB Interneto vizija (1.31%)</text>
<text dominant-baseline="central" text-anchor="start" style="font-size:14px;font-family:sans-serif;" xml:space="preserve" transform="translate(69 177.1248)" fill="var(--tooltip-grey)">Vodafone Germany (0.82%)</text>
<text dominant-baseline="central" text-anchor="start" style="font-size:14px;font-family:sans-serif;" xml:space="preserve" transform="translate(69 161.7248)" fill="var(--tooltip-grey)">O.m.c. Computers  Communications...</text>
<text dominant-baseline="central" text-anchor="start" style="font-size:14px;font-family:sans-serif;" xml:space="preserve" transform="translate(69 146.3249)" fill="var(--tooltip-grey)">Onebim Vietnam Company (0.73%)</text>
<text dominant-baseline="central" text-anchor="start" style="font-size:14px;font-family:sans-serif;" xml:space="preserve" transform="translate(69 130.9249)" fill="var(--tooltip-grey)">1984 ehf (0.69%)</text>
<text dominant-baseline="central" text-anchor="start" style="font-size:14px;font-family:sans-serif;" xml:space="preserve" transform="translate(69 115.525)" fill="var(--tooltip-grey)">Akamai Connected Cloud (0.62%)</text>
<text dominant-baseline="central" text-anchor="start" style="font-size:14px;font-family:sans-serif;" xml:space="preserve" transform="translate(69 100.1251)" fill="var(--tooltip-grey)">Contabo GmbH (0.44%)</text>
<text dominant-baseline="central" text-anchor="start" style="font-size:14px;font-family:sans-serif;" xml:space="preserve" transform="translate(69 84.7251)" fill="var(--tooltip-grey)">FiberSpeed Inc. (0.43%)</text>
<text dominant-baseline="central" text-anchor="start" style="font-size:14px;font-family:sans-serif;" xml:space="preserve" transform="translate(69 69.3252)" fill="var(--tooltip-grey)">NTT (0.42%)</text>
<text dominant-baseline="central" text-anchor="start" style="font-size:14px;font-family:sans-serif;" xml:space="preserve" transform="translate(69 53.9252)" fill="var(--tooltip-grey)">Virgin Media (0.4%)</text>
<text dominant-baseline="central" text-anchor="start" style="font-size:14px;font-family:sans-serif;" xml:space="preserve" transform="translate(69 28.3466)" fill="var(--tooltip-grey)">Diğer (9.71%)</text>
</svg>